<svg width="24" height="24" viewBox="0 0 24 24" fill="none" xmlns="http://www.w3.org/2000/svg">
<g clip-path="url(#clip0_4404_17685)">
<path d="M0 0H22C23.1046 0 24 0.895431 24 2V22C24 23.1046 23.1046 24 22 24H0V0Z" fill="#405DFC"/>
<path d="M6.186 8.814L3 12L6.186 15.186L7.77 13.593L6.186 12L7.77 10.407L6.186 8.814ZM12 17.814L10.407 16.23L8.814 17.814L12 21L15.186 17.814L13.593 16.23L12 17.814ZM17.814 8.814L16.23 10.407L17.814 12L16.23 13.593L17.814 15.186L21 12L17.814 8.814ZM8.814 6.186L10.407 7.77L12 6.186L13.593 7.77L15.186 6.186L12 3L8.814 6.186Z" fill="white"/>
</g>
<defs>
<clipPath id="clip0_4404_17685">
<rect width="24" height="24" fill="white"/>
</clipPath>
</defs>
</svg>
